<svg width="221" height="101" viewBox="0 0 221 101" fill="none" xmlns="http://www.w3.org/2000/svg">
<g style="mix-blend-mode:exclusion">
<circle cx="192.629" cy="28.3708" r="27.8034" stroke="white" stroke-width="1.13483" stroke-linejoin="round"/>
<path d="M210.219 28.3708C210.219 43.7156 197.528 56.1742 181.848 56.1742C166.169 56.1742 153.478 43.7156 153.478 28.3708C153.478 13.0259 166.169 0.567416 181.848 0.567416C197.528 0.567416 210.219 13.0259 210.219 28.3708Z" stroke="white" stroke-width="1.13483" stroke-linejoin="round"/>
<circle cx="171.067" cy="28.3708" r="27.8034" stroke="white" stroke-width="1.13483" stroke-linejoin="round"/>
<circle cx="160.854" cy="28.3708" r="27.8034" stroke="white" stroke-width="1.13483" stroke-linejoin="round"/>
<circle cx="150.64" cy="28.3708" r="27.8034" stroke="white" stroke-width="1.13483" stroke-linejoin="round"/>
</g>
<g style="mix-blend-mode:exclusion">
<path d="M6.42676 74.6853V66.9004H10.2738C10.811 66.9004 11.2574 67.0025 11.6129 67.2068C11.9685 67.4035 12.2333 67.6796 12.4073 68.0352C12.5889 68.3908 12.6797 68.8031 12.6797 69.2722C12.6797 69.7488 12.5813 70.1725 12.3846 70.5432C12.1879 70.9063 11.908 71.19 11.5449 71.3943C11.1893 71.5986 10.7618 71.7007 10.2625 71.7007H7.50485V74.6853H6.42676ZM7.50485 70.7701H10.1944C10.6181 70.7701 10.9547 70.6377 11.2044 70.3729C11.4616 70.1081 11.5902 69.745 11.5902 69.2835C11.5902 68.9733 11.5373 68.7123 11.4314 68.5005C11.3254 68.2886 11.1704 68.126 10.9661 68.0125C10.7618 67.8914 10.5046 67.8309 10.1944 67.8309H7.50485V70.7701ZM13.9738 74.6853V66.9004H18.0706C18.6002 66.9004 19.039 66.9987 19.387 67.1954C19.7426 67.3846 20.0074 67.6531 20.1814 68.0011C20.3554 68.3416 20.4424 68.735 20.4424 69.1814C20.4424 69.7185 20.3213 70.18 20.0792 70.5659C19.8371 70.9517 19.5042 71.2278 19.0806 71.3943L20.7147 74.6853H19.5345L18.0138 71.5872H15.0519V74.6853H13.9738ZM15.0519 70.668H17.9684C18.3997 70.668 18.7363 70.5356 18.9784 70.2708C19.2281 70.006 19.3529 69.6429 19.3529 69.1814C19.3529 68.8939 19.3 68.6518 19.1941 68.4551C19.0881 68.2584 18.933 68.1071 18.7288 68.0011C18.5245 67.8877 18.2711 67.8309 17.9684 67.8309H15.0519V70.668ZM25.5592 74.8215C24.7497 74.8215 24.0537 74.674 23.4711 74.3789C22.8962 74.0838 22.4498 73.6375 22.132 73.0398C21.8218 72.4421 21.6668 71.6931 21.6668 70.7928C21.6668 69.885 21.8218 69.136 22.132 68.5459C22.4498 67.9482 22.8962 67.5018 23.4711 67.2068C24.0537 66.9117 24.7497 66.7642 25.5592 66.7642C26.3687 66.7642 27.061 66.9117 27.636 67.2068C28.2185 67.5018 28.6649 67.9482 28.9751 68.5459C29.2928 69.136 29.4517 69.885 29.4517 70.7928C29.4517 71.6931 29.2928 72.4421 28.9751 73.0398C28.6649 73.6375 28.2185 74.0838 27.636 74.3789C27.061 74.674 26.3687 74.8215 25.5592 74.8215ZM25.5592 73.8909C25.9829 73.8909 26.365 73.8342 26.7054 73.7207C27.0534 73.6072 27.3447 73.4294 27.5792 73.1873C27.8213 72.9377 28.0067 72.6275 28.1353 72.2568C28.2639 71.8785 28.3282 71.4321 28.3282 70.9177V70.6793C28.3282 70.1573 28.2639 69.711 28.1353 69.3402C28.0067 68.962 27.8213 68.6518 27.5792 68.4097C27.3447 68.16 27.0534 67.9784 26.7054 67.865C26.365 67.7515 25.9829 67.6947 25.5592 67.6947C25.128 67.6947 24.7421 67.7515 24.4017 67.865C24.0612 67.9784 23.77 68.16 23.5279 68.4097C23.2858 68.6518 23.1004 68.962 22.9718 69.3402C22.8508 69.711 22.7902 70.1573 22.7902 70.6793V70.9177C22.7902 71.4321 22.8508 71.8785 22.9718 72.2568C23.1004 72.6275 23.2858 72.9377 23.5279 73.1873C23.77 73.4294 24.0612 73.6072 24.4017 73.7207C24.7421 73.8342 25.128 73.8909 25.5592 73.8909ZM31.0074 74.6853V66.9004H33.9126C34.7296 66.9004 35.4257 67.0365 36.0006 67.3089C36.5756 67.5813 37.0144 68.0049 37.3171 68.5799C37.6272 69.1473 37.7823 69.885 37.7823 70.7928C37.7823 71.6856 37.6272 72.4194 37.3171 72.9944C37.0144 73.5694 36.5756 73.9968 36.0006 74.2768C35.4257 74.5491 34.7296 74.6853 33.9126 74.6853H31.0074ZM32.0855 73.7547H33.8899C34.3211 73.7547 34.7069 73.7018 35.0474 73.5959C35.3878 73.4824 35.6791 73.3122 35.9212 73.0852C36.1633 72.8582 36.3449 72.567 36.4659 72.2114C36.5945 71.8482 36.6588 71.417 36.6588 70.9177V70.6907C36.6588 70.1762 36.5945 69.7412 36.4659 69.3856C36.3449 69.0225 36.1633 68.7274 35.9212 68.5005C35.6867 68.2735 35.3992 68.1071 35.0587 68.0011C34.7183 67.8877 34.3287 67.8309 33.8899 67.8309H32.0855V73.7547ZM42.4961 74.8215C41.8379 74.8215 41.2705 74.7156 40.7939 74.5037C40.3173 74.2919 39.9503 73.959 39.6931 73.5051C39.4434 73.0436 39.3186 72.4535 39.3186 71.7347V66.9004H40.3967V71.8482C40.3967 72.5291 40.5783 73.0398 40.9414 73.3802C41.3121 73.7207 41.8304 73.8909 42.4961 73.8909C43.1695 73.8909 43.6953 73.7207 44.0736 73.3802C44.4518 73.0398 44.641 72.5291 44.641 71.8482V66.9004H45.7077V71.7347C45.7077 72.4535 45.5791 73.0436 45.3219 73.5051C45.0646 73.959 44.6939 74.2919 44.2097 74.5037C43.7331 74.7156 43.1619 74.8215 42.4961 74.8215ZM50.967 74.8215C50.1727 74.8215 49.4993 74.6777 48.947 74.3902C48.3947 74.0952 47.9711 73.6526 47.676 73.0625C47.3885 72.4648 47.2448 71.7083 47.2448 70.7928C47.2448 69.4386 47.5739 68.4286 48.2321 67.7628C48.8903 67.0971 49.8057 66.7642 50.9784 66.7642C51.6442 66.7642 52.2343 66.8739 52.7487 67.0933C53.2632 67.3051 53.6642 67.6304 53.9516 68.0692C54.2467 68.5005 54.3942 69.0452 54.3942 69.7034H53.3048C53.3048 69.2495 53.2064 68.875 53.0097 68.5799C52.8206 68.2849 52.552 68.0655 52.204 67.9217C51.856 67.7704 51.4474 67.6947 50.9784 67.6947C50.4337 67.6947 49.9646 67.8007 49.5712 68.0125C49.1778 68.2243 48.8789 68.5534 48.6747 68.9998C48.4704 69.4386 48.3683 70.006 48.3683 70.702V70.9404C48.3683 71.6288 48.4704 72.1925 48.6747 72.6313C48.8789 73.0625 49.174 73.3802 49.5598 73.5845C49.9533 73.7888 50.4261 73.8909 50.9784 73.8909C51.4626 73.8909 51.8787 73.819 52.2267 73.6753C52.5823 73.5316 52.8546 73.3122 53.0438 73.0171C53.2405 72.7145 53.3388 72.3362 53.3388 71.8823H54.3942C54.3942 72.5556 54.2429 73.1079 53.9403 73.5391C53.6452 73.9704 53.2405 74.2919 52.726 74.5037C52.2116 74.7156 51.6252 74.8215 50.967 74.8215ZM57.5832 74.6853V67.8423H54.9163V66.9004H61.3508V67.8423H58.6613V74.6853H57.5832ZM68.2555 74.8215C67.4611 74.8215 66.7878 74.6777 66.2355 74.3902C65.6832 74.0952 65.2595 73.6526 64.9645 73.0625C64.677 72.4648 64.5332 71.7083 64.5332 70.7928C64.5332 69.4386 64.8623 68.4286 65.5205 67.7628C66.1787 67.0971 67.0942 66.7642 68.2668 66.7642C68.9326 66.7642 69.5227 66.8739 70.0372 67.0933C70.5516 67.3051 70.9526 67.6304 71.2401 68.0692C71.5351 68.5005 71.6827 69.0452 71.6827 69.7034H70.5932C70.5932 69.2495 70.4949 68.875 70.2982 68.5799C70.109 68.2849 69.8405 68.0655 69.4924 67.9217C69.1444 67.7704 68.7359 67.6947 68.2668 67.6947C67.7221 67.6947 67.253 67.8007 66.8596 68.0125C66.4662 68.2243 66.1674 68.5534 65.9631 68.9998C65.7589 69.4386 65.6567 70.006 65.6567 70.702V70.9404C65.6567 71.6288 65.7589 72.1925 65.9631 72.6313C66.1674 73.0625 66.4624 73.3802 66.8483 73.5845C67.2417 73.7888 67.7145 73.8909 68.2668 73.8909C68.751 73.8909 69.1671 73.819 69.5151 73.6753C69.8707 73.5316 70.1431 73.3122 70.3322 73.0171C70.5289 72.7145 70.6273 72.3362 70.6273 71.8823H71.6827C71.6827 72.5556 71.5314 73.1079 71.2287 73.5391C70.9337 73.9704 70.5289 74.2919 70.0145 74.5037C69.5 74.7156 68.9137 74.8215 68.2555 74.8215ZM73.1868 74.6853V66.9004H77.2835C77.8131 66.9004 78.2519 66.9987 78.5999 67.1954C78.9555 67.3846 79.2203 67.6531 79.3943 68.0011C79.5683 68.3416 79.6553 68.735 79.6553 69.1814C79.6553 69.7185 79.5343 70.18 79.2922 70.5659C79.0501 70.9517 78.7172 71.2278 78.2935 71.3943L79.9277 74.6853H78.7474L77.2268 71.5872H74.2649V74.6853H73.1868ZM74.2649 70.668H77.1814C77.6126 70.668 77.9493 70.5356 78.1914 70.2708C78.441 70.006 78.5659 69.6429 78.5659 69.1814C78.5659 68.8939 78.5129 68.6518 78.407 68.4551C78.3011 68.2584 78.146 68.1071 77.9417 68.0011C77.7374 67.8877 77.484 67.8309 77.1814 67.8309H74.2649V70.668ZM81.432 74.6853V66.9004H87.4239V67.8309H82.5101V70.2368H86.9246V71.1673H82.5101V73.7547H87.492V74.6853H81.432ZM88.2156 74.6853L91.291 66.9004H92.7095L95.7962 74.6853H94.6274L93.867 72.7561H90.0767L89.3277 74.6853H88.2156ZM90.4285 71.8369H93.5039L92.562 69.397C92.5393 69.3289 92.5052 69.2343 92.4598 69.1133C92.4144 68.9922 92.3653 68.8598 92.3123 68.7161C92.2594 68.5648 92.2064 68.4135 92.1534 68.2622C92.1005 68.1033 92.0513 67.9595 92.0059 67.8309H91.9378C91.8849 67.9822 91.8243 68.1562 91.7562 68.3529C91.6882 68.5496 91.6201 68.7426 91.552 68.9317C91.4839 69.1133 91.4271 69.2684 91.3817 69.397L90.4285 71.8369ZM97.7677 74.6853V67.8423H95.1009V66.9004H101.535V67.8423H98.8458V74.6853H97.7677ZM102.743 74.6853V66.9004H108.735V67.8309H103.821V70.2368H108.236V71.1673H103.821V73.7547H108.803V74.6853H102.743ZM110.423 74.6853V66.9004H113.329C114.146 66.9004 114.842 67.0365 115.417 67.3089C115.992 67.5813 116.43 68.0049 116.733 68.5799C117.043 69.1473 117.198 69.885 117.198 70.7928C117.198 71.6856 117.043 72.4194 116.733 72.9944C116.43 73.5694 115.992 73.9968 115.417 74.2768C114.842 74.5491 114.146 74.6853 113.329 74.6853H110.423ZM111.502 73.7547H113.306C113.737 73.7547 114.123 73.7018 114.463 73.5959C114.804 73.4824 115.095 73.3122 115.337 73.0852C115.579 72.8582 115.761 72.567 115.882 72.2114C116.011 71.8482 116.075 71.417 116.075 70.9177V70.6907C116.075 70.1762 116.011 69.7412 115.882 69.3856C115.761 69.0225 115.579 68.7274 115.337 68.5005C115.103 68.2735 114.815 68.1071 114.475 68.0011C114.134 67.8877 113.745 67.8309 113.306 67.8309H111.502V73.7547ZM121.129 74.6853V66.9004H122.207V74.6853H121.129ZM124.154 74.6853V66.9004H125.198L128.977 72.0298C129.015 72.0752 129.064 72.1433 129.125 72.2341C129.186 72.3249 129.246 72.4156 129.307 72.5064C129.367 72.5896 129.416 72.6653 129.454 72.7334H129.499C129.499 72.6123 129.499 72.4951 129.499 72.3816C129.499 72.2605 129.499 72.1433 129.499 72.0298V66.9004H130.555V74.6853H129.568L125.743 69.4651C125.69 69.3819 125.611 69.2646 125.505 69.1133C125.407 68.962 125.323 68.8409 125.255 68.7501H125.198C125.198 68.8712 125.198 68.9922 125.198 69.1133C125.198 69.2268 125.198 69.344 125.198 69.4651V74.6853H124.154ZM136.789 74.6853V67.8423H134.122V66.9004H140.556V67.8423H137.867V74.6853H136.789ZM141.764 74.6853V66.9004H142.842V70.2368H147.075V66.9004H148.165V74.6853H147.075V71.1787H142.842V74.6853H141.764ZM150.12 74.6853V66.9004H156.112V67.8309H151.198V70.2368H155.613V71.1673H151.198V73.7547H156.18V74.6853H150.12ZM160.172 74.6853V66.9004H165.687V67.8309H161.25V70.3276H165.29V71.2468H161.25V74.6853H160.172ZM165.604 74.6853L168.679 66.9004H170.097L173.184 74.6853H172.015L171.255 72.7561H167.465L166.716 74.6853H165.604ZM167.816 71.8369H170.892L169.95 69.397C169.927 69.3289 169.893 69.2343 169.848 69.1133C169.802 68.9922 169.753 68.8598 169.7 68.7161C169.647 68.5648 169.594 68.4135 169.541 68.2622C169.488 68.1033 169.439 67.9595 169.394 67.8309H169.326C169.273 67.9822 169.212 68.1562 169.144 68.3529C169.076 68.5496 169.008 68.7426 168.94 68.9317C168.872 69.1133 168.815 69.2684 168.77 69.397L167.816 71.8369ZM177.417 74.8215C176.622 74.8215 175.949 74.6777 175.397 74.3902C174.844 74.0952 174.421 73.6526 174.126 73.0625C173.838 72.4648 173.694 71.7083 173.694 70.7928C173.694 69.4386 174.023 68.4286 174.682 67.7628C175.34 67.0971 176.255 66.7642 177.428 66.7642C178.094 66.7642 178.684 66.8739 179.198 67.0933C179.713 67.3051 180.114 67.6304 180.401 68.0692C180.696 68.5005 180.844 69.0452 180.844 69.7034H179.754C179.754 69.2495 179.656 68.875 179.459 68.5799C179.27 68.2849 179.002 68.0655 178.653 67.9217C178.305 67.7704 177.897 67.6947 177.428 67.6947C176.883 67.6947 176.414 67.8007 176.021 68.0125C175.627 68.2243 175.328 68.5534 175.124 68.9998C174.92 69.4386 174.818 70.006 174.818 70.702V70.9404C174.818 71.6288 174.92 72.1925 175.124 72.6313C175.328 73.0625 175.623 73.3802 176.009 73.5845C176.403 73.7888 176.876 73.8909 177.428 73.8909C177.912 73.8909 178.328 73.819 178.676 73.6753C179.032 73.5316 179.304 73.3122 179.493 73.0171C179.69 72.7145 179.788 72.3362 179.788 71.8823H180.844C180.844 72.5556 180.692 73.1079 180.39 73.5391C180.095 73.9704 179.69 74.2919 179.176 74.5037C178.661 74.7156 178.075 74.8215 177.417 74.8215ZM182.348 74.6853V66.9004H183.426V74.6853H182.348ZM185.373 74.6853V66.9004H186.451V73.7434H190.321V74.6853H185.373ZM191.457 74.6853V66.9004H192.536V74.6853H191.457ZM196.389 74.6853V67.8423H193.723V66.9004H200.157V67.8423H197.468V74.6853H196.389ZM201.365 74.6853V66.9004H202.443V74.6853H201.365ZM204.391 74.6853V66.9004H210.382V67.8309H205.469V70.2368H209.883V71.1673H205.469V73.7547H210.451V74.6853H204.391ZM214.93 74.8215C214.507 74.8215 214.098 74.7799 213.705 74.6967C213.319 74.6134 212.975 74.481 212.672 74.2995C212.369 74.1103 212.127 73.8682 211.946 73.5732C211.772 73.2781 211.685 72.915 211.685 72.4837C211.685 72.4459 211.685 72.4081 211.685 72.3702C211.692 72.3324 211.696 72.2946 211.696 72.2568H212.786C212.786 72.2795 212.782 72.3173 212.774 72.3702C212.774 72.4156 212.774 72.4573 212.774 72.4951C212.774 72.7977 212.865 73.0549 213.047 73.2668C213.228 73.4786 213.478 73.6375 213.796 73.7434C214.121 73.8417 214.488 73.8909 214.896 73.8909C215.078 73.8909 215.267 73.8796 215.464 73.8569C215.668 73.8342 215.861 73.7964 216.043 73.7434C216.232 73.6829 216.398 73.6072 216.542 73.5164C216.693 73.4181 216.81 73.3008 216.894 73.1646C216.984 73.0209 217.03 72.8469 217.03 72.6426C217.03 72.3854 216.954 72.1735 216.803 72.0071C216.659 71.8331 216.466 71.6931 216.224 71.5872C215.982 71.4737 215.706 71.3754 215.396 71.2922C215.093 71.2014 214.779 71.1144 214.454 71.0311C214.128 70.9479 213.811 70.8534 213.501 70.7474C213.198 70.634 212.926 70.4978 212.683 70.3389C212.441 70.1725 212.245 69.9682 212.093 69.7261C211.95 69.484 211.878 69.1889 211.878 68.8409C211.878 68.5156 211.942 68.2243 212.071 67.9671C212.207 67.7099 212.404 67.4943 212.661 67.3202C212.926 67.1387 213.251 67.0025 213.637 66.9117C214.023 66.8134 214.465 66.7642 214.964 66.7642C215.373 66.7642 215.751 66.8096 216.099 66.9004C216.455 66.9836 216.765 67.116 217.03 67.2975C217.302 67.4716 217.514 67.6947 217.665 67.9671C217.817 68.2395 217.892 68.5686 217.892 68.9544V69.0906H216.826V68.9204C216.826 68.6631 216.746 68.4437 216.587 68.2622C216.428 68.0806 216.209 67.9406 215.929 67.8423C215.657 67.7439 215.347 67.6947 214.999 67.6947C214.545 67.6947 214.166 67.7401 213.864 67.8309C213.561 67.9141 213.334 68.039 213.183 68.2054C213.039 68.3643 212.967 68.5459 212.967 68.7501C212.967 68.9847 213.039 69.1814 213.183 69.3402C213.334 69.4991 213.531 69.6315 213.773 69.7374C214.015 69.8358 214.291 69.9266 214.601 70.0098C214.911 70.093 215.225 70.18 215.543 70.2708C215.869 70.354 216.183 70.4524 216.485 70.5659C216.795 70.6718 217.071 70.808 217.314 70.9744C217.563 71.1333 217.76 71.3375 217.904 71.5872C218.047 71.8293 218.119 72.1281 218.119 72.4837C218.119 73.036 217.983 73.4862 217.711 73.8342C217.438 74.1746 217.064 74.4243 216.587 74.5832C216.111 74.742 215.558 74.8215 214.93 74.8215ZM13.3576 86.8215C12.5481 86.8215 11.852 86.674 11.2695 86.3789C10.6945 86.0838 10.2481 85.6375 9.93038 85.0398C9.62019 84.4421 9.4651 83.6931 9.4651 82.7928C9.4651 81.885 9.62019 81.136 9.93038 80.5459C10.2481 79.9482 10.6945 79.5018 11.2695 79.2068C11.852 78.9117 12.5481 78.7642 13.3576 78.7642C14.1671 78.7642 14.8593 78.9117 15.4343 79.2068C16.0169 79.5018 16.4632 79.9482 16.7734 80.5459C17.0912 81.136 17.25 81.885 17.25 82.7928C17.25 83.6931 17.0912 84.4421 16.7734 85.0398C16.4632 85.6375 16.0169 86.0838 15.4343 86.3789C14.8593 86.674 14.1671 86.8215 13.3576 86.8215ZM13.3576 85.8909C13.7812 85.8909 14.1633 85.8342 14.5038 85.7207C14.8518 85.6072 15.143 85.4294 15.3776 85.1873C15.6197 84.9377 15.805 84.6275 15.9336 84.2568C16.0623 83.8785 16.1266 83.4321 16.1266 82.9177V82.6793C16.1266 82.1573 16.0623 81.711 15.9336 81.3402C15.805 80.962 15.6197 80.6518 15.3776 80.4097C15.143 80.16 14.8518 79.9784 14.5038 79.865C14.1633 79.7515 13.7812 79.6947 13.3576 79.6947C12.9263 79.6947 12.5405 79.7515 12.2 79.865C11.8596 79.9784 11.5683 80.16 11.3262 80.4097C11.0841 80.6518 10.8988 80.962 10.7702 81.3402C10.6491 81.711 10.5886 82.1573 10.5886 82.6793V82.9177C10.5886 83.4321 10.6491 83.8785 10.7702 84.2568C10.8988 84.6275 11.0841 84.9377 11.3262 85.1873C11.5683 85.4294 11.8596 85.6072 12.2 85.7207C12.5405 85.8342 12.9263 85.8909 13.3576 85.8909ZM18.8057 86.6853V78.9004H24.321V79.8309H19.8838V82.3276H23.9238V83.2468H19.8838V86.6853H18.8057ZM29.6335 86.6853V79.8423H26.9667V78.9004H33.4012V79.8423H30.7116V86.6853H29.6335ZM34.6092 86.6853V78.9004H35.6872V82.2368H39.9202V78.9004H41.0096V86.6853H39.9202V83.1787H35.6872V86.6853H34.6092ZM42.9652 86.6853V78.9004H48.9571V79.8309H44.0433V82.2368H48.4578V83.1673H44.0433V85.7547H49.0252V86.6853H42.9652ZM56.1717 86.8215C55.5135 86.8215 54.9461 86.7156 54.4695 86.5037C53.9929 86.2919 53.6259 85.959 53.3687 85.5051C53.1191 85.0436 52.9942 84.4535 52.9942 83.7347V78.9004H54.0723V83.8482C54.0723 84.5291 54.2539 85.0398 54.617 85.3802C54.9877 85.7207 55.506 85.8909 56.1717 85.8909C56.8451 85.8909 57.3709 85.7207 57.7492 85.3802C58.1274 85.0398 58.3166 84.5291 58.3166 83.8482V78.9004H59.3833V83.7347C59.3833 84.4535 59.2547 85.0436 58.9975 85.5051C58.7403 85.959 58.3695 86.2919 57.8853 86.5037C57.4087 86.7156 56.8375 86.8215 56.1717 86.8215ZM63.2241 86.6853V79.8423H60.5573V78.9004H66.9917V79.8423H64.3022V86.6853H63.2241ZM68.1997 86.6853V78.9004H72.217C72.6634 78.9004 73.0492 78.9798 73.3746 79.1387C73.6999 79.29 73.9495 79.5056 74.1235 79.7855C74.3051 80.0655 74.3959 80.3983 74.3959 80.7842C74.3959 81.0792 74.3429 81.3516 74.237 81.6013C74.1311 81.8509 73.9836 82.059 73.7944 82.2254C73.6053 82.3919 73.3897 82.5167 73.1476 82.5999V82.6453C73.42 82.7058 73.6658 82.8155 73.8852 82.9744C74.1046 83.1333 74.2786 83.3451 74.4073 83.6099C74.5434 83.8671 74.6115 84.1849 74.6115 84.5632C74.6115 85.0701 74.5056 85.4786 74.2938 85.7888C74.0819 86.099 73.7982 86.3259 73.4426 86.4697C73.0871 86.6134 72.6785 86.6853 72.217 86.6853H68.1997ZM69.2778 85.7547H72.2057C72.5915 85.7547 72.9055 85.6564 73.1476 85.4597C73.3897 85.2554 73.5107 84.9187 73.5107 84.4497C73.5107 84.1622 73.4578 83.9239 73.3519 83.7347C73.2459 83.538 73.0908 83.3943 72.8866 83.3035C72.6823 83.2052 72.4251 83.156 72.1149 83.156H69.2778V85.7547ZM69.2778 82.2368H72.0128C72.27 82.2368 72.4932 82.1876 72.6823 82.0892C72.8714 81.9833 73.019 81.8396 73.1249 81.658C73.2384 81.4689 73.2951 81.257 73.2951 81.0225C73.2951 80.614 73.1854 80.3151 72.966 80.126C72.7466 79.9293 72.4553 79.8309 72.0922 79.8309H69.2778V82.2368ZM75.8512 81.7488V81.2949C76.0025 81.257 76.1236 81.1814 76.2144 81.0679C76.3127 80.9544 76.3808 80.8144 76.4186 80.648C76.464 80.4816 76.4867 80.2962 76.4867 80.0919H75.9647V78.9004H77.0768V79.9671C77.0768 80.3983 77.0125 80.7388 76.8839 80.9884C76.7553 81.2381 76.5964 81.4197 76.4073 81.5332C76.2257 81.6391 76.0404 81.711 75.8512 81.7488ZM81.6985 86.8215C81.2749 86.8215 80.8663 86.7799 80.4729 86.6967C80.0871 86.6134 79.7428 86.481 79.4402 86.2995C79.1376 86.1103 78.8955 85.8682 78.7139 85.5732C78.5399 85.2781 78.4529 84.915 78.4529 84.4837C78.4529 84.4459 78.4529 84.4081 78.4529 84.3702C78.4605 84.3324 78.4643 84.2946 78.4643 84.2568H79.5537C79.5537 84.2795 79.5499 84.3173 79.5424 84.3702C79.5424 84.4156 79.5424 84.4573 79.5424 84.4951C79.5424 84.7977 79.6331 85.0549 79.8147 85.2668C79.9963 85.4786 80.246 85.6375 80.5637 85.7434C80.889 85.8417 81.256 85.8909 81.6645 85.8909C81.8461 85.8909 82.0352 85.8796 82.2319 85.8569C82.4362 85.8342 82.6291 85.7964 82.8107 85.7434C82.9998 85.6829 83.1663 85.6072 83.31 85.5164C83.4613 85.4181 83.5786 85.3008 83.6618 85.1646C83.7526 85.0209 83.798 84.8469 83.798 84.6426C83.798 84.3854 83.7223 84.1735 83.571 84.0071C83.4273 83.8331 83.2343 83.6931 82.9922 83.5872C82.7501 83.4737 82.474 83.3754 82.1638 83.2922C81.8612 83.2014 81.5472 83.1144 81.2219 83.0311C80.8966 82.9479 80.5788 82.8534 80.2687 82.7474C79.966 82.634 79.6937 82.4978 79.4516 82.3389C79.2095 82.1725 79.0128 81.9682 78.8615 81.7261C78.7177 81.484 78.6458 81.1889 78.6458 80.8409C78.6458 80.5156 78.7101 80.2243 78.8388 79.9671C78.9749 79.7099 79.1716 79.4943 79.4289 79.3202C79.6937 79.1387 80.019 79.0025 80.4048 78.9117C80.7907 78.8134 81.2333 78.7642 81.7326 78.7642C82.1411 78.7642 82.5194 78.8096 82.8674 78.9004C83.223 78.9836 83.5332 79.116 83.798 79.2975C84.0703 79.4716 84.2822 79.6947 84.4335 79.9671C84.5848 80.2395 84.6604 80.5686 84.6604 80.9544V81.0906H83.5937V80.9204C83.5937 80.6631 83.5143 80.4437 83.3554 80.2622C83.1965 80.0806 82.9771 79.9406 82.6972 79.8423C82.4248 79.7439 82.1146 79.6947 81.7666 79.6947C81.3127 79.6947 80.9344 79.7401 80.6318 79.8309C80.3292 79.9141 80.1022 80.039 79.9509 80.2054C79.8072 80.3643 79.7353 80.5459 79.7353 80.7501C79.7353 80.9847 79.8072 81.1814 79.9509 81.3402C80.1022 81.4991 80.2989 81.6315 80.541 81.7374C80.7831 81.8358 81.0593 81.9266 81.3694 82.0098C81.6796 82.093 81.9936 82.18 82.3113 82.2708C82.6367 82.354 82.9506 82.4524 83.2533 82.5659C83.5634 82.6718 83.8396 82.808 84.0817 82.9744C84.3313 83.1333 84.5281 83.3375 84.6718 83.5872C84.8155 83.8293 84.8874 84.1281 84.8874 84.4837C84.8874 85.036 84.7512 85.4862 84.4789 85.8342C84.2065 86.1746 83.832 86.4243 83.3554 86.5832C82.8788 86.742 82.3265 86.8215 81.6985 86.8215ZM87.9496 86.6853L91.025 78.9004H92.4435L95.5303 86.6853H94.3614L93.6011 84.7561H89.8107L89.0617 86.6853H87.9496ZM90.1625 83.8369H93.2379L92.296 81.397C92.2733 81.3289 92.2393 81.2343 92.1939 81.1133C92.1485 80.9922 92.0993 80.8598 92.0463 80.7161C91.9934 80.5648 91.9404 80.4135 91.8875 80.2622C91.8345 80.1033 91.7853 79.9595 91.7399 79.8309H91.6718C91.6189 79.9822 91.5584 80.1562 91.4903 80.3529C91.4222 80.5496 91.3541 80.7426 91.286 80.9317C91.2179 81.1133 91.1612 81.2684 91.1158 81.397L90.1625 83.8369ZM99.4414 86.8215C99.0177 86.8215 98.6092 86.7799 98.2157 86.6967C97.8299 86.6134 97.4857 86.481 97.1831 86.2995C96.8804 86.1103 96.6383 85.8682 96.4568 85.5732C96.2828 85.2781 96.1957 84.915 96.1957 84.4837C96.1957 84.4459 96.1957 84.4081 96.1957 84.3702C96.2033 84.3324 96.2071 84.2946 96.2071 84.2568H97.2965C97.2965 84.2795 97.2928 84.3173 97.2852 84.3702C97.2852 84.4156 97.2852 84.4573 97.2852 84.4951C97.2852 84.7977 97.376 85.0549 97.5575 85.2668C97.7391 85.4786 97.9888 85.6375 98.3065 85.7434C98.6319 85.8417 98.9988 85.8909 99.4073 85.8909C99.5889 85.8909 99.778 85.8796 99.9747 85.8569C100.179 85.8342 100.372 85.7964 100.554 85.7434C100.743 85.6829 100.909 85.6072 101.053 85.5164C101.204 85.4181 101.321 85.3008 101.405 85.1646C101.495 85.0209 101.541 84.8469 101.541 84.6426C101.541 84.3854 101.465 84.1735 101.314 84.0071C101.17 83.8331 100.977 83.6931 100.735 83.5872C100.493 83.4737 100.217 83.3754 99.9066 83.2922C99.604 83.2014 99.2901 83.1144 98.9647 83.0311C98.6394 82.9479 98.3217 82.8534 98.0115 82.7474C97.7089 82.634 97.4365 82.4978 97.1944 82.3389C96.9523 82.1725 96.7556 81.9682 96.6043 81.7261C96.4605 81.484 96.3887 81.1889 96.3887 80.8409C96.3887 80.5156 96.453 80.2243 96.5816 79.9671C96.7178 79.7099 96.9145 79.4943 97.1717 79.3202C97.4365 79.1387 97.7618 79.0025 98.1477 78.9117C98.5335 78.8134 98.9761 78.7642 99.4754 78.7642C99.884 78.7642 100.262 78.8096 100.61 78.9004C100.966 78.9836 101.276 79.116 101.541 79.2975C101.813 79.4716 102.025 79.6947 102.176 79.9671C102.328 80.2395 102.403 80.5686 102.403 80.9544V81.0906H101.337V80.9204C101.337 80.6631 101.257 80.4437 101.098 80.2622C100.939 80.0806 100.72 79.9406 100.44 79.8423C100.168 79.7439 99.8575 79.6947 99.5095 79.6947C99.0555 79.6947 98.6772 79.7401 98.3746 79.8309C98.072 79.9141 97.845 80.039 97.6937 80.2054C97.55 80.3643 97.4781 80.5459 97.4781 80.7501C97.4781 80.9847 97.55 81.1814 97.6937 81.3402C97.845 81.4991 98.0417 81.6315 98.2838 81.7374C98.5259 81.8358 98.8021 81.9266 99.1123 82.0098C99.4225 82.093 99.7364 82.18 100.054 82.2708C100.379 82.354 100.693 82.4524 100.996 82.5659C101.306 82.6718 101.582 82.808 101.825 82.9744C102.074 83.1333 102.271 83.3375 102.415 83.5872C102.558 83.8293 102.63 84.1281 102.63 84.4837C102.63 85.036 102.494 85.4862 102.222 85.8342C101.949 86.1746 101.575 86.4243 101.098 86.5832C100.622 86.742 100.069 86.8215 99.4414 86.8215ZM106.124 86.6853V79.8423H103.457V78.9004H109.891V79.8423H107.202V86.6853H106.124ZM111.099 86.6853V78.9004H115.196C115.726 78.9004 116.165 78.9987 116.513 79.1954C116.868 79.3846 117.133 79.6531 117.307 80.0011C117.481 80.3416 117.568 80.735 117.568 81.1814C117.568 81.7185 117.447 82.18 117.205 82.5659C116.963 82.9517 116.63 83.2278 116.206 83.3943L117.84 86.6853H116.66L115.139 83.5872H112.178V86.6853H111.099ZM112.178 82.668H115.094C115.525 82.668 115.862 82.5356 116.104 82.2708C116.354 82.006 116.479 81.6429 116.479 81.1814C116.479 80.8939 116.426 80.6518 116.32 80.4551C116.214 80.2584 116.059 80.1071 115.854 80.0011C115.65 79.8877 115.397 79.8309 115.094 79.8309H112.178V82.668ZM122.685 86.8215C121.875 86.8215 121.179 86.674 120.597 86.3789C120.022 86.0838 119.575 85.6375 119.258 85.0398C118.947 84.4421 118.792 83.6931 118.792 82.7928C118.792 81.885 118.947 81.136 119.258 80.5459C119.575 79.9482 120.022 79.5018 120.597 79.2068C121.179 78.9117 121.875 78.7642 122.685 78.7642C123.494 78.7642 124.187 78.9117 124.762 79.2068C125.344 79.5018 125.79 79.9482 126.101 80.5459C126.418 81.136 126.577 81.885 126.577 82.7928C126.577 83.6931 126.418 84.4421 126.101 85.0398C125.79 85.6375 125.344 86.0838 124.762 86.3789C124.187 86.674 123.494 86.8215 122.685 86.8215ZM122.685 85.8909C123.109 85.8909 123.491 85.8342 123.831 85.7207C124.179 85.6072 124.47 85.4294 124.705 85.1873C124.947 84.9377 125.132 84.6275 125.261 84.2568C125.39 83.8785 125.454 83.4321 125.454 82.9177V82.6793C125.454 82.1573 125.39 81.711 125.261 81.3402C125.132 80.962 124.947 80.6518 124.705 80.4097C124.47 80.16 124.179 79.9784 123.831 79.865C123.491 79.7515 123.109 79.6947 122.685 79.6947C122.254 79.6947 121.868 79.7515 121.527 79.865C121.187 79.9784 120.896 80.16 120.653 80.4097C120.411 80.6518 120.226 80.962 120.097 81.3402C119.976 81.711 119.916 82.1573 119.916 82.6793V82.9177C119.916 83.4321 119.976 83.8785 120.097 84.2568C120.226 84.6275 120.411 84.9377 120.653 85.1873C120.896 85.4294 121.187 85.6072 121.527 85.7207C121.868 85.8342 122.254 85.8909 122.685 85.8909ZM128.133 86.6853V78.9004H129.177L132.956 84.0298C132.994 84.0752 133.043 84.1433 133.104 84.2341C133.164 84.3249 133.225 84.4156 133.285 84.5064C133.346 84.5896 133.395 84.6653 133.433 84.7334H133.478C133.478 84.6123 133.478 84.4951 133.478 84.3816C133.478 84.2605 133.478 84.1433 133.478 84.0298V78.9004H134.533V86.6853H133.546L129.722 81.4651C129.669 81.3819 129.589 81.2646 129.483 81.1133C129.385 80.962 129.302 80.8409 129.234 80.7501H129.177C129.177 80.8712 129.177 80.9922 129.177 81.1133C129.177 81.2268 129.177 81.344 129.177 81.4651V86.6853H128.133ZM139.984 86.8215C139.175 86.8215 138.479 86.674 137.896 86.3789C137.321 86.0838 136.875 85.6375 136.557 85.0398C136.247 84.4421 136.092 83.6931 136.092 82.7928C136.092 81.885 136.247 81.136 136.557 80.5459C136.875 79.9482 137.321 79.5018 137.896 79.2068C138.479 78.9117 139.175 78.7642 139.984 78.7642C140.794 78.7642 141.486 78.9117 142.061 79.2068C142.644 79.5018 143.09 79.9482 143.4 80.5459C143.718 81.136 143.877 81.885 143.877 82.7928C143.877 83.6931 143.718 84.4421 143.4 85.0398C143.09 85.6375 142.644 86.0838 142.061 86.3789C141.486 86.674 140.794 86.8215 139.984 86.8215ZM139.984 85.8909C140.408 85.8909 140.79 85.8342 141.131 85.7207C141.479 85.6072 141.77 85.4294 142.004 85.1873C142.246 84.9377 142.432 84.6275 142.56 84.2568C142.689 83.8785 142.753 83.4321 142.753 82.9177V82.6793C142.753 82.1573 142.689 81.711 142.56 81.3402C142.432 80.962 142.246 80.6518 142.004 80.4097C141.77 80.16 141.479 79.9784 141.131 79.865C140.79 79.7515 140.408 79.6947 139.984 79.6947C139.553 79.6947 139.167 79.7515 138.827 79.865C138.486 79.9784 138.195 80.16 137.953 80.4097C137.711 80.6518 137.526 80.962 137.397 81.3402C137.276 81.711 137.215 82.1573 137.215 82.6793V82.9177C137.215 83.4321 137.276 83.8785 137.397 84.2568C137.526 84.6275 137.711 84.9377 137.953 85.1873C138.195 85.4294 138.486 85.6072 138.827 85.7207C139.167 85.8342 139.553 85.8909 139.984 85.8909ZM145.433 86.6853V78.9004H147.101L148.871 83.9504C148.916 84.0865 148.962 84.2378 149.007 84.4043C149.06 84.5632 149.106 84.7145 149.143 84.8582C149.189 85.002 149.223 85.1268 149.246 85.2327H149.325C149.348 85.1192 149.378 84.9906 149.416 84.8469C149.454 84.6956 149.495 84.5405 149.541 84.3816C149.586 84.2227 149.628 84.079 149.665 83.9504L151.436 78.9004H153.093V86.6853H152.015V82.1233C152.015 81.8887 152.018 81.6353 152.026 81.3629C152.033 81.083 152.041 80.8296 152.049 80.6026C152.056 80.3681 152.06 80.2016 152.06 80.1033H151.969C151.946 80.2016 151.909 80.3416 151.856 80.5232C151.803 80.6972 151.746 80.8825 151.685 81.0792C151.633 81.2684 151.583 81.4386 151.538 81.5899L149.711 86.6853H148.78L146.953 81.5899C146.908 81.4613 146.859 81.3138 146.806 81.1473C146.76 80.9733 146.711 80.7955 146.658 80.614C146.613 80.4324 146.567 80.2622 146.522 80.1033H146.443C146.45 80.2697 146.454 80.4778 146.454 80.7274C146.461 80.9695 146.465 81.2154 146.465 81.4651C146.473 81.7072 146.477 81.9266 146.477 82.1233V86.6853H145.433ZM157.242 86.6853V83.451L154.178 78.9004H155.415L157.787 82.4978H157.844L160.204 78.9004H161.385L158.332 83.451V86.6853H157.242ZM163.442 86.6853L166.518 78.9004H167.936L171.023 86.6853H169.854L169.094 84.7561H165.304L164.555 86.6853H163.442ZM165.655 83.8369H168.731L167.789 81.397C167.766 81.3289 167.732 81.2343 167.687 81.1133C167.641 80.9922 167.592 80.8598 167.539 80.7161C167.486 80.5648 167.433 80.4135 167.38 80.2622C167.327 80.1033 167.278 79.9595 167.233 79.8309H167.165C167.112 79.9822 167.051 80.1562 166.983 80.3529C166.915 80.5496 166.847 80.7426 166.779 80.9317C166.711 81.1133 166.654 81.2684 166.609 81.397L165.655 83.8369ZM172.074 86.6853V78.9004H173.119L176.898 84.0298C176.935 84.0752 176.985 84.1433 177.045 84.2341C177.106 84.3249 177.166 84.4156 177.227 84.5064C177.287 84.5896 177.336 84.6653 177.374 84.7334H177.42C177.42 84.6123 177.42 84.4951 177.42 84.3816C177.42 84.2605 177.42 84.1433 177.42 84.0298V78.9004H178.475V86.6853H177.488L173.663 81.4651C173.61 81.3819 173.531 81.2646 173.425 81.1133C173.327 80.962 173.243 80.8409 173.175 80.7501H173.119C173.119 80.8712 173.119 80.9922 173.119 81.1133C173.119 81.2268 173.119 81.344 173.119 81.4651V86.6853H172.074ZM180.431 86.6853V78.9004H183.336C184.153 78.9004 184.849 79.0365 185.424 79.3089C185.999 79.5813 186.438 80.0049 186.74 80.5799C187.05 81.1473 187.206 81.885 187.206 82.7928C187.206 83.6856 187.05 84.4194 186.74 84.9944C186.438 85.5694 185.999 85.9968 185.424 86.2768C184.849 86.5491 184.153 86.6853 183.336 86.6853H180.431ZM181.509 85.7547H183.313C183.744 85.7547 184.13 85.7018 184.471 85.5959C184.811 85.4824 185.102 85.3122 185.344 85.0852C185.586 84.8582 185.768 84.567 185.889 84.2114C186.018 83.8482 186.082 83.417 186.082 82.9177V82.6907C186.082 82.1762 186.018 81.7412 185.889 81.3856C185.768 81.0225 185.586 80.7274 185.344 80.5005C185.11 80.2735 184.822 80.1071 184.482 80.0011C184.141 79.8877 183.752 79.8309 183.313 79.8309H181.509V85.7547ZM191.136 86.6853V78.9004H194.041C194.858 78.9004 195.554 79.0365 196.129 79.3089C196.704 79.5813 197.143 80.0049 197.446 80.5799C197.756 81.1473 197.911 81.885 197.911 82.7928C197.911 83.6856 197.756 84.4194 197.446 84.9944C197.143 85.5694 196.704 85.9968 196.129 86.2768C195.554 86.5491 194.858 86.6853 194.041 86.6853H191.136ZM192.214 85.7547H194.019C194.45 85.7547 194.836 85.7018 195.176 85.5959C195.517 85.4824 195.808 85.3122 196.05 85.0852C196.292 84.8582 196.474 84.567 196.595 84.2114C196.723 83.8482 196.788 83.417 196.788 82.9177V82.6907C196.788 82.1762 196.723 81.7412 196.595 81.3856C196.474 81.0225 196.292 80.7274 196.05 80.5005C195.815 80.2735 195.528 80.1071 195.187 80.0011C194.847 79.8877 194.457 79.8309 194.019 79.8309H192.214V85.7547ZM198.429 86.6853L201.505 78.9004H202.923L206.01 86.6853H204.841L204.081 84.7561H200.291L199.542 86.6853H198.429ZM200.642 83.8369H203.718L202.776 81.397C202.753 81.3289 202.719 81.2343 202.674 81.1133C202.628 80.9922 202.579 80.8598 202.526 80.7161C202.473 80.5648 202.42 80.4135 202.367 80.2622C202.314 80.1033 202.265 79.9595 202.22 79.8309H202.152C202.099 79.9822 202.038 80.1562 201.97 80.3529C201.902 80.5496 201.834 80.7426 201.766 80.9317C201.698 81.1133 201.641 81.2684 201.596 81.397L200.642 83.8369ZM207.982 86.6853V79.8423H205.315V78.9004H211.749V79.8423H209.06V86.6853H207.982ZM211.074 86.6853L214.15 78.9004H215.568L218.655 86.6853H217.486L216.726 84.7561H212.935L212.187 86.6853H211.074ZM213.287 83.8369H216.363L215.421 81.397C215.398 81.3289 215.364 81.2343 215.319 81.1133C215.273 80.9922 215.224 80.8598 215.171 80.7161C215.118 80.5648 215.065 80.4135 215.012 80.2622C214.959 80.1033 214.91 79.9595 214.865 79.8309H214.797C214.744 79.9822 214.683 80.1562 214.615 80.3529C214.547 80.5496 214.479 80.7426 214.411 80.9317C214.343 81.1133 214.286 81.2684 214.241 81.397L213.287 83.8369ZM45.2376 98.8215C44.814 98.8215 44.4054 98.7799 44.012 98.6967C43.6262 98.6134 43.282 98.481 42.9793 98.2995C42.6767 98.1103 42.4346 97.8682 42.253 97.5732C42.079 97.2781 41.992 96.915 41.992 96.4837C41.992 96.4459 41.992 96.4081 41.992 96.3702C41.9996 96.3324 42.0034 96.2946 42.0034 96.2568H43.0928C43.0928 96.2795 43.089 96.3173 43.0815 96.3702C43.0815 96.4156 43.0815 96.4573 43.0815 96.4951C43.0815 96.7977 43.1723 97.0549 43.3538 97.2668C43.5354 97.4786 43.7851 97.6375 44.1028 97.7434C44.4281 97.8417 44.7951 97.8909 45.2036 97.8909C45.3852 97.8909 45.5743 97.8796 45.771 97.8569C45.9753 97.8342 46.1682 97.7964 46.3498 97.7434C46.5389 97.6829 46.7054 97.6072 46.8491 97.5164C47.0004 97.4181 47.1177 97.3008 47.2009 97.1646C47.2917 97.0209 47.3371 96.8469 47.3371 96.6426C47.3371 96.3854 47.2614 96.1735 47.1101 96.0071C46.9664 95.8331 46.7735 95.6931 46.5314 95.5872C46.2893 95.4737 46.0131 95.3754 45.7029 95.2922C45.4003 95.2014 45.0863 95.1144 44.761 95.0311C44.4357 94.9479 44.1179 94.8534 43.8078 94.7474C43.5051 94.634 43.2328 94.4978 42.9907 94.3389C42.7486 94.1725 42.5519 93.9682 42.4006 93.7261C42.2568 93.484 42.185 93.1889 42.185 92.8409C42.185 92.5156 42.2493 92.2243 42.3779 91.9671C42.5141 91.7099 42.7108 91.4943 42.968 91.3202C43.2328 91.1387 43.5581 91.0025 43.9439 90.9117C44.3298 90.8134 44.7724 90.7642 45.2717 90.7642C45.6802 90.7642 46.0585 90.8096 46.4065 90.9004C46.7621 90.9836 47.0723 91.116 47.3371 91.2975C47.6094 91.4716 47.8213 91.6947 47.9726 91.9671C48.1239 92.2395 48.1996 92.5686 48.1996 92.9544V93.0906H47.1328V92.9204C47.1328 92.6631 47.0534 92.4437 46.8945 92.2622C46.7356 92.0806 46.5162 91.9406 46.2363 91.8423C45.9639 91.7439 45.6538 91.6947 45.3057 91.6947C44.8518 91.6947 44.4735 91.7401 44.1709 91.8309C43.8683 91.9141 43.6413 92.039 43.49 92.2054C43.3463 92.3643 43.2744 92.5459 43.2744 92.7501C43.2744 92.9847 43.3463 93.1814 43.49 93.3402C43.6413 93.4991 43.838 93.6315 44.0801 93.7374C44.3222 93.8358 44.5984 93.9266 44.9085 94.0098C45.2187 94.093 45.5327 94.18 45.8505 94.2708C46.1758 94.354 46.4897 94.4524 46.7924 94.5659C47.1026 94.6718 47.3787 94.808 47.6208 94.9744C47.8705 95.1333 48.0672 95.3375 48.2109 95.5872C48.3547 95.8293 48.4265 96.1281 48.4265 96.4837C48.4265 97.036 48.2903 97.4862 48.018 97.8342C47.7456 98.1746 47.3711 98.4243 46.8945 98.5832C46.4179 98.742 45.8656 98.8215 45.2376 98.8215ZM53.3387 98.8215C52.5443 98.8215 51.8709 98.6777 51.3187 98.3902C50.7664 98.0952 50.3427 97.6526 50.0476 97.0625C49.7602 96.4648 49.6164 95.7083 49.6164 94.7928C49.6164 93.4386 49.9455 92.4286 50.6037 91.7628C51.2619 91.0971 52.1773 90.7642 53.35 90.7642C54.0158 90.7642 54.6059 90.8739 55.1203 91.0933C55.6348 91.3051 56.0358 91.6304 56.3233 92.0692C56.6183 92.5005 56.7658 93.0452 56.7658 93.7034H55.6764C55.6764 93.2495 55.5781 92.875 55.3814 92.5799C55.1922 92.2849 54.9236 92.0655 54.5756 91.9217C54.2276 91.7704 53.8191 91.6947 53.35 91.6947C52.8053 91.6947 52.3362 91.8007 51.9428 92.0125C51.5494 92.2243 51.2506 92.5534 51.0463 92.9998C50.842 93.4386 50.7399 94.006 50.7399 94.702V94.9404C50.7399 95.6288 50.842 96.1925 51.0463 96.6313C51.2506 97.0625 51.5456 97.3802 51.9315 97.5845C52.3249 97.7888 52.7977 97.8909 53.35 97.8909C53.8342 97.8909 54.2503 97.819 54.5983 97.6753C54.9539 97.5316 55.2263 97.3122 55.4154 97.0171C55.6121 96.7145 55.7105 96.3362 55.7105 95.8823H56.7658C56.7658 96.5556 56.6145 97.1079 56.3119 97.5391C56.0169 97.9704 55.6121 98.2919 55.0976 98.5037C54.5832 98.7156 53.9969 98.8215 53.3387 98.8215ZM58.2699 98.6853V90.9004H59.348V98.6853H58.2699ZM61.2954 98.6853V90.9004H67.2873V91.8309H62.3735V94.2368H66.788V95.1673H62.3735V97.7547H67.3554V98.6853H61.2954ZM68.9755 98.6853V90.9004H70.0195L73.7985 96.0298C73.8363 96.0752 73.8855 96.1433 73.946 96.2341C74.0066 96.3249 74.0671 96.4156 74.1276 96.5064C74.1881 96.5896 74.2373 96.6653 74.2751 96.7334H74.3205C74.3205 96.6123 74.3205 96.4951 74.3205 96.3816C74.3205 96.2605 74.3205 96.1433 74.3205 96.0298V90.9004H75.3759V98.6853H74.3886L70.5642 93.4651C70.5113 93.3819 70.4318 93.2646 70.3259 93.1133C70.2276 92.962 70.1444 92.8409 70.0763 92.7501H70.0195C70.0195 92.8712 70.0195 92.9922 70.0195 93.1133C70.0195 93.2268 70.0195 93.344 70.0195 93.4651V98.6853H68.9755ZM80.6566 98.8215C79.8622 98.8215 79.1889 98.6777 78.6366 98.3902C78.0843 98.0952 77.6607 97.6526 77.3656 97.0625C77.0781 96.4648 76.9344 95.7083 76.9344 94.7928C76.9344 93.4386 77.2635 92.4286 77.9217 91.7628C78.5799 91.0971 79.4953 90.7642 80.668 90.7642C81.3337 90.7642 81.9238 90.8739 82.4383 91.0933C82.9528 91.3051 83.3537 91.6304 83.6412 92.0692C83.9363 92.5005 84.0838 93.0452 84.0838 93.7034H82.9944C82.9944 93.2495 82.896 92.875 82.6993 92.5799C82.5102 92.2849 82.2416 92.0655 81.8936 91.9217C81.5456 91.7704 81.137 91.6947 80.668 91.6947C80.1232 91.6947 79.6542 91.8007 79.2608 92.0125C78.8674 92.2243 78.5685 92.5534 78.3643 92.9998C78.16 93.4386 78.0579 94.006 78.0579 94.702V94.9404C78.0579 95.6288 78.16 96.1925 78.3643 96.6313C78.5685 97.0625 78.8636 97.3802 79.2494 97.5845C79.6428 97.7888 80.1157 97.8909 80.668 97.8909C81.1522 97.8909 81.5683 97.819 81.9163 97.6753C82.2719 97.5316 82.5442 97.3122 82.7334 97.0171C82.9301 96.7145 83.0284 96.3362 83.0284 95.8823H84.0838C84.0838 96.5556 83.9325 97.1079 83.6299 97.5391C83.3348 97.9704 82.9301 98.2919 82.4156 98.5037C81.9011 98.7156 81.3148 98.8215 80.6566 98.8215ZM85.5879 98.6853V90.9004H91.5798V91.8309H86.666V94.2368H91.0805V95.1673H86.666V97.7547H91.6479V98.6853H85.5879ZM95.6396 98.6853V90.9004H99.7363C100.266 90.9004 100.705 90.9987 101.053 91.1954C101.408 91.3846 101.673 91.6531 101.847 92.0011C102.021 92.3416 102.108 92.735 102.108 93.1814C102.108 93.7185 101.987 94.18 101.745 94.5659C101.503 94.9517 101.17 95.2278 100.746 95.3943L102.38 98.6853H101.2L99.6796 95.5872H96.7177V98.6853H95.6396ZM96.7177 94.668H99.6342C100.065 94.668 100.402 94.5356 100.644 94.2708C100.894 94.006 101.019 93.6429 101.019 93.1814C101.019 92.8939 100.966 92.6518 100.86 92.4551C100.754 92.2584 100.599 92.1071 100.395 92.0011C100.19 91.8877 99.9368 91.8309 99.6342 91.8309H96.7177V94.668ZM103.885 98.6853V90.9004H109.877V91.8309H104.963V94.2368H109.377V95.1673H104.963V97.7547H109.945V98.6853H103.885ZM114.425 98.8215C114.001 98.8215 113.592 98.7799 113.199 98.6967C112.813 98.6134 112.469 98.481 112.166 98.2995C111.864 98.1103 111.622 97.8682 111.44 97.5732C111.266 97.2781 111.179 96.915 111.179 96.4837C111.179 96.4459 111.179 96.4081 111.179 96.3702C111.187 96.3324 111.19 96.2946 111.19 96.2568H112.28C112.28 96.2795 112.276 96.3173 112.269 96.3702C112.269 96.4156 112.269 96.4573 112.269 96.4951C112.269 96.7977 112.359 97.0549 112.541 97.2668C112.722 97.4786 112.972 97.6375 113.29 97.7434C113.615 97.8417 113.982 97.8909 114.391 97.8909C114.572 97.8909 114.761 97.8796 114.958 97.8569C115.162 97.8342 115.355 97.7964 115.537 97.7434C115.726 97.6829 115.892 97.6072 116.036 97.5164C116.187 97.4181 116.305 97.3008 116.388 97.1646C116.479 97.0209 116.524 96.8469 116.524 96.6426C116.524 96.3854 116.448 96.1735 116.297 96.0071C116.153 95.8331 115.96 95.6931 115.718 95.5872C115.476 95.4737 115.2 95.3754 114.89 95.2922C114.587 95.2014 114.273 95.1144 113.948 95.0311C113.623 94.9479 113.305 94.8534 112.995 94.7474C112.692 94.634 112.42 94.4978 112.178 94.3389C111.936 94.1725 111.739 93.9682 111.588 93.7261C111.444 93.484 111.372 93.1889 111.372 92.8409C111.372 92.5156 111.436 92.2243 111.565 91.9671C111.701 91.7099 111.898 91.4943 112.155 91.3202C112.42 91.1387 112.745 91.0025 113.131 90.9117C113.517 90.8134 113.959 90.7642 114.459 90.7642C114.867 90.7642 115.246 90.8096 115.594 90.9004C115.949 90.9836 116.259 91.116 116.524 91.2975C116.796 91.4716 117.008 91.6947 117.16 91.9671C117.311 92.2395 117.387 92.5686 117.387 92.9544V93.0906H116.32V92.9204C116.32 92.6631 116.24 92.4437 116.082 92.2622C115.923 92.0806 115.703 91.9406 115.423 91.8423C115.151 91.7439 114.841 91.6947 114.493 91.6947C114.039 91.6947 113.661 91.7401 113.358 91.8309C113.055 91.9141 112.828 92.039 112.677 92.2054C112.533 92.3643 112.461 92.5459 112.461 92.7501C112.461 92.9847 112.533 93.1814 112.677 93.3402C112.828 93.4991 113.025 93.6315 113.267 93.7374C113.509 93.8358 113.785 93.9266 114.096 94.0098C114.406 94.093 114.72 94.18 115.037 94.2708C115.363 94.354 115.677 94.4524 115.979 94.5659C116.29 94.6718 116.566 94.808 116.808 94.9744C117.057 95.1333 117.254 95.3375 117.398 95.5872C117.542 95.8293 117.614 96.1281 117.614 96.4837C117.614 97.036 117.477 97.4862 117.205 97.8342C116.933 98.1746 116.558 98.4243 116.082 98.5832C115.605 98.742 115.053 98.8215 114.425 98.8215ZM119.201 98.6853V90.9004H125.193V91.8309H120.279V94.2368H124.693V95.1673H120.279V97.7547H125.261V98.6853H119.201ZM125.984 98.6853L129.06 90.9004H130.478L133.565 98.6853H132.396L131.636 96.7561H127.845L127.096 98.6853H125.984ZM128.197 95.8369H131.272L130.331 93.397C130.308 93.3289 130.274 93.2343 130.228 93.1133C130.183 92.9922 130.134 92.8598 130.081 92.7161C130.028 92.5648 129.975 92.4135 129.922 92.2622C129.869 92.1033 129.82 91.9595 129.775 91.8309H129.706C129.653 91.9822 129.593 92.1562 129.525 92.3529C129.457 92.5496 129.389 92.7426 129.321 92.9317C129.253 93.1133 129.196 93.2684 129.15 93.397L128.197 95.8369ZM134.616 98.6853V90.9004H138.713C139.243 90.9004 139.681 90.9987 140.029 91.1954C140.385 91.3846 140.65 91.6531 140.824 92.0011C140.998 92.3416 141.085 92.735 141.085 93.1814C141.085 93.7185 140.964 94.18 140.722 94.5659C140.479 94.9517 140.147 95.2278 139.723 95.3943L141.357 98.6853H140.177L138.656 95.5872H135.694V98.6853H134.616ZM135.694 94.668H138.611C139.042 94.668 139.379 94.5356 139.621 94.2708C139.87 94.006 139.995 93.6429 139.995 93.1814C139.995 92.8939 139.942 92.6518 139.836 92.4551C139.73 92.2584 139.575 92.1071 139.371 92.0011C139.167 91.8877 138.913 91.8309 138.611 91.8309H135.694V94.668ZM146.031 98.8215C145.237 98.8215 144.564 98.6777 144.011 98.3902C143.459 98.0952 143.035 97.6526 142.74 97.0625C142.453 96.4648 142.309 95.7083 142.309 94.7928C142.309 93.4386 142.638 92.4286 143.296 91.7628C143.955 91.0971 144.87 90.7642 146.043 90.7642C146.708 90.7642 147.299 90.8739 147.813 91.0933C148.327 91.3051 148.728 91.6304 149.016 92.0692C149.311 92.5005 149.459 93.0452 149.459 93.7034H148.369C148.369 93.2495 148.271 92.875 148.074 92.5799C147.885 92.2849 147.616 92.0655 147.268 91.9217C146.92 91.7704 146.512 91.6947 146.043 91.6947C145.498 91.6947 145.029 91.8007 144.635 92.0125C144.242 92.2243 143.943 92.5534 143.739 92.9998C143.535 93.4386 143.433 94.006 143.433 94.702V94.9404C143.433 95.6288 143.535 96.1925 143.739 96.6313C143.943 97.0625 144.238 97.3802 144.624 97.5845C145.018 97.7888 145.49 97.8909 146.043 97.8909C146.527 97.8909 146.943 97.819 147.291 97.6753C147.647 97.5316 147.919 97.3122 148.108 97.0171C148.305 96.7145 148.403 96.3362 148.403 95.8823H149.459C149.459 96.5556 149.307 97.1079 149.005 97.5391C148.71 97.9704 148.305 98.2919 147.79 98.5037C147.276 98.7156 146.69 98.8215 146.031 98.8215ZM150.963 98.6853V90.9004H152.041V94.2368H156.274V90.9004H157.363V98.6853H156.274V95.1787H152.041V98.6853H150.963ZM164.55 98.8215C164.126 98.8215 163.718 98.7799 163.324 98.6967C162.939 98.6134 162.594 98.481 162.292 98.2995C161.989 98.1103 161.747 97.8682 161.565 97.5732C161.391 97.2781 161.304 96.915 161.304 96.4837C161.304 96.4459 161.304 96.4081 161.304 96.3702C161.312 96.3324 161.316 96.2946 161.316 96.2568H162.405C162.405 96.2795 162.401 96.3173 162.394 96.3702C162.394 96.4156 162.394 96.4573 162.394 96.4951C162.394 96.7977 162.485 97.0549 162.666 97.2668C162.848 97.4786 163.098 97.6375 163.415 97.7434C163.741 97.8417 164.108 97.8909 164.516 97.8909C164.698 97.8909 164.887 97.8796 165.083 97.8569C165.288 97.8342 165.481 97.7964 165.662 97.7434C165.851 97.6829 166.018 97.6072 166.162 97.5164C166.313 97.4181 166.43 97.3008 166.513 97.1646C166.604 97.0209 166.65 96.8469 166.65 96.6426C166.65 96.3854 166.574 96.1735 166.423 96.0071C166.279 95.8331 166.086 95.6931 165.844 95.5872C165.602 95.4737 165.326 95.3754 165.015 95.2922C164.713 95.2014 164.399 95.1144 164.073 95.0311C163.748 94.9479 163.43 94.8534 163.12 94.7474C162.818 94.634 162.545 94.4978 162.303 94.3389C162.061 94.1725 161.864 93.9682 161.713 93.7261C161.569 93.484 161.497 93.1889 161.497 92.8409C161.497 92.5156 161.562 92.2243 161.69 91.9671C161.827 91.7099 162.023 91.4943 162.28 91.3202C162.545 91.1387 162.871 91.0025 163.256 90.9117C163.642 90.8134 164.085 90.7642 164.584 90.7642C164.993 90.7642 165.371 90.8096 165.719 90.9004C166.075 90.9836 166.385 91.116 166.65 91.2975C166.922 91.4716 167.134 91.6947 167.285 91.9671C167.436 92.2395 167.512 92.5686 167.512 92.9544V93.0906H166.445V92.9204C166.445 92.6631 166.366 92.4437 166.207 92.2622C166.048 92.0806 165.829 91.9406 165.549 91.8423C165.276 91.7439 164.966 91.6947 164.618 91.6947C164.164 91.6947 163.786 91.7401 163.483 91.8309C163.181 91.9141 162.954 92.039 162.802 92.2054C162.659 92.3643 162.587 92.5459 162.587 92.7501C162.587 92.9847 162.659 93.1814 162.802 93.3402C162.954 93.4991 163.15 93.6315 163.393 93.7374C163.635 93.8358 163.911 93.9266 164.221 94.0098C164.531 94.093 164.845 94.18 165.163 94.2708C165.488 94.354 165.802 94.4524 166.105 94.5659C166.415 94.6718 166.691 94.808 166.933 94.9744C167.183 95.1333 167.38 95.3375 167.523 95.5872C167.667 95.8293 167.739 96.1281 167.739 96.4837C167.739 97.036 167.603 97.4862 167.33 97.8342C167.058 98.1746 166.684 98.4243 166.207 98.5832C165.73 98.742 165.178 98.8215 164.55 98.8215ZM169.326 98.6853V90.9004H175.318V91.8309H170.404V94.2368H174.819V95.1673H170.404V97.7547H175.386V98.6853H169.326ZM177.006 98.6853V90.9004H182.998V91.8309H178.084V94.2368H182.499V95.1673H178.084V97.7547H183.066V98.6853H177.006ZM184.686 98.6853V90.9004H187.591C188.408 90.9004 189.104 91.0365 189.679 91.3089C190.254 91.5813 190.693 92.0049 190.996 92.5799C191.306 93.1473 191.461 93.885 191.461 94.7928C191.461 95.6856 191.306 96.4194 190.996 96.9944C190.693 97.5694 190.254 97.9968 189.679 98.2768C189.104 98.5491 188.408 98.6853 187.591 98.6853H184.686ZM185.764 97.7547H187.569C188 97.7547 188.386 97.7018 188.726 97.5959C189.067 97.4824 189.358 97.3122 189.6 97.0852C189.842 96.8582 190.024 96.567 190.145 96.2114C190.273 95.8482 190.338 95.417 190.338 94.9177V94.6907C190.338 94.1762 190.273 93.7412 190.145 93.3856C190.024 93.0225 189.842 92.7274 189.6 92.5005C189.365 92.2735 189.078 92.1071 188.738 92.0011C188.397 91.8877 188.007 91.8309 187.569 91.8309H185.764V97.7547ZM193.02 98.6853V90.9004H197.037C197.484 90.9004 197.87 90.9798 198.195 91.1387C198.52 91.29 198.77 91.5056 198.944 91.7855C199.125 92.0655 199.216 92.3983 199.216 92.7842C199.216 93.0792 199.163 93.3516 199.057 93.6013C198.951 93.8509 198.804 94.059 198.615 94.2254C198.426 94.3919 198.21 94.5167 197.968 94.5999V94.6453C198.24 94.7058 198.486 94.8155 198.706 94.9744C198.925 95.1333 199.099 95.3451 199.228 95.6099C199.364 95.8671 199.432 96.1849 199.432 96.5632C199.432 97.0701 199.326 97.4786 199.114 97.7888C198.902 98.099 198.619 98.3259 198.263 98.4697C197.907 98.6134 197.499 98.6853 197.037 98.6853H193.02ZM194.098 97.7547H197.026C197.412 97.7547 197.726 97.6564 197.968 97.4597C198.21 97.2554 198.331 96.9187 198.331 96.4497C198.331 96.1622 198.278 95.9239 198.172 95.7347C198.066 95.538 197.911 95.3943 197.707 95.3035C197.503 95.2052 197.245 95.156 196.935 95.156H194.098V97.7547ZM194.098 94.2368H196.833C197.09 94.2368 197.314 94.1876 197.503 94.0892C197.692 93.9833 197.839 93.8396 197.945 93.658C198.059 93.4689 198.115 93.257 198.115 93.0225C198.115 92.614 198.006 92.3151 197.786 92.126C197.567 91.9293 197.276 91.8309 196.913 91.8309H194.098V94.2368ZM200.944 98.6853V90.9004H206.936V91.8309H202.022V94.2368H206.437V95.1673H202.022V97.7547H207.004V98.6853H200.944ZM208.624 98.6853V90.9004H211.529C212.346 90.9004 213.042 91.0365 213.617 91.3089C214.192 91.5813 214.631 92.0049 214.934 92.5799C215.244 93.1473 215.399 93.885 215.399 94.7928C215.399 95.6856 215.244 96.4194 214.934 96.9944C214.631 97.5694 214.192 97.9968 213.617 98.2768C213.042 98.5491 212.346 98.6853 211.529 98.6853H208.624ZM209.702 97.7547H211.506C211.938 97.7547 212.324 97.7018 212.664 97.5959C213.004 97.4824 213.296 97.3122 213.538 97.0852C213.78 96.8582 213.962 96.567 214.083 96.2114C214.211 95.8482 214.275 95.417 214.275 94.9177V94.6907C214.275 94.1762 214.211 93.7412 214.083 93.3856C213.962 93.0225 213.78 92.7274 213.538 92.5005C213.303 92.2735 213.016 92.1071 212.675 92.0011C212.335 91.8877 211.945 91.8309 211.506 91.8309H209.702V97.7547ZM216.593 98.6853V97.4937H217.705V98.6853H216.593Z" fill="white"/>
</g>
<g style="mix-blend-mode:exclusion">
<path d="M92.1968 54.2583V53.9292C92.1968 53.6114 92.2573 53.3202 92.3784 53.0554C92.507 52.783 92.6734 52.5371 92.8777 52.3177C93.0895 52.0908 93.3279 51.8752 93.5927 51.6709C93.8574 51.4666 94.126 51.2661 94.3984 51.0694C94.7691 50.8122 95.1095 50.555 95.4197 50.2977C95.7375 50.0405 95.9909 49.7644 96.1801 49.4693C96.3692 49.1667 96.4638 48.83 96.4638 48.4593C96.4638 48.2248 96.407 48.0129 96.2936 47.8238C96.1876 47.6271 96.025 47.472 95.8056 47.3585C95.5862 47.245 95.3062 47.1883 94.9658 47.1883C94.5648 47.1883 94.2433 47.2564 94.0012 47.3926C93.7591 47.5288 93.5813 47.7103 93.4678 47.9373C93.3619 48.1643 93.3089 48.4139 93.3089 48.6863V49.1516H92.3216C92.3141 49.1137 92.3065 49.057 92.2989 48.9813C92.2914 48.8981 92.2876 48.8035 92.2876 48.6976C92.2876 48.1378 92.4124 47.6876 92.6621 47.3472C92.9118 46.9992 93.2446 46.7457 93.6607 46.5868C94.0768 46.4204 94.527 46.3372 95.0112 46.3372C95.4424 46.3372 95.8131 46.3977 96.1233 46.5187C96.4335 46.6322 96.6907 46.7911 96.895 46.9954C97.0993 47.1996 97.2506 47.4342 97.3489 47.699C97.4473 47.9562 97.4965 48.2286 97.4965 48.5161C97.4965 48.8716 97.4322 49.197 97.3036 49.492C97.1825 49.7871 97.0085 50.0632 96.7815 50.3204C96.5621 50.5701 96.3011 50.8122 95.9985 51.0467C95.7034 51.2813 95.3819 51.5196 95.0339 51.7617C94.7918 51.9205 94.5535 52.0908 94.3189 52.2723C94.0844 52.4464 93.8839 52.6241 93.7175 52.8057C93.551 52.9873 93.4451 53.1613 93.3997 53.3277H97.5419V54.2583H92.1968ZM101.325 54.3945C100.902 54.3945 100.523 54.334 100.19 54.2129C99.8575 54.0843 99.5738 53.8687 99.3392 53.5661C99.1047 53.2559 98.9269 52.8435 98.8059 52.3291C98.6848 51.8071 98.6243 51.1526 98.6243 50.3658C98.6243 49.579 98.6848 48.9284 98.8059 48.4139C98.9269 47.8919 99.1047 47.4796 99.3392 47.177C99.5738 46.8668 99.8575 46.6511 100.19 46.5301C100.523 46.4015 100.902 46.3372 101.325 46.3372C101.749 46.3372 102.123 46.4015 102.449 46.5301C102.782 46.6511 103.065 46.8668 103.3 47.177C103.534 47.4796 103.712 47.8919 103.833 48.4139C103.954 48.9284 104.015 49.579 104.015 50.3658C104.015 51.1526 103.954 51.8071 103.833 52.3291C103.712 52.8435 103.534 53.2559 103.3 53.5661C103.065 53.8687 102.782 54.0843 102.449 54.2129C102.123 54.334 101.749 54.3945 101.325 54.3945ZM101.325 53.5547C101.756 53.5547 102.089 53.445 102.324 53.2256C102.566 53.0062 102.732 52.6809 102.823 52.2496C102.922 51.8184 102.971 51.2813 102.971 50.6382V50.1162C102.971 49.4655 102.922 48.9246 102.823 48.4934C102.732 48.0546 102.566 47.7255 102.324 47.5061C102.089 47.2867 101.756 47.177 101.325 47.177C100.894 47.177 100.557 47.2867 100.315 47.5061C100.073 47.7255 99.9029 48.0508 99.8045 48.482C99.7137 48.9132 99.6683 49.4542 99.6683 50.1048V50.6155C99.6683 51.2586 99.7137 51.7995 99.8045 52.2383C99.9029 52.6771 100.073 53.0062 100.315 53.2256C100.557 53.445 100.894 53.5547 101.325 53.5547ZM105.141 54.2583V53.9292C105.141 53.6114 105.202 53.3202 105.323 53.0554C105.451 52.783 105.618 52.5371 105.822 52.3177C106.034 52.0908 106.272 51.8752 106.537 51.6709C106.802 51.4666 107.07 51.2661 107.343 51.0694C107.713 50.8122 108.054 50.555 108.364 50.2977C108.682 50.0405 108.935 49.7644 109.124 49.4693C109.313 49.1667 109.408 48.83 109.408 48.4593C109.408 48.2248 109.351 48.0129 109.238 47.8238C109.132 47.6271 108.969 47.472 108.75 47.3585C108.53 47.245 108.25 47.1883 107.91 47.1883C107.509 47.1883 107.187 47.2564 106.945 47.3926C106.703 47.5288 106.525 47.7103 106.412 47.9373C106.306 48.1643 106.253 48.4139 106.253 48.6863V49.1516H105.266C105.258 49.1137 105.251 49.057 105.243 48.9813C105.236 48.8981 105.232 48.8035 105.232 48.6976C105.232 48.1378 105.357 47.6876 105.606 47.3472C105.856 46.9992 106.189 46.7457 106.605 46.5868C107.021 46.4204 107.471 46.3372 107.955 46.3372C108.387 46.3372 108.757 46.3977 109.067 46.5187C109.378 46.6322 109.635 46.7911 109.839 46.9954C110.043 47.1996 110.195 47.4342 110.293 47.699C110.391 47.9562 110.441 48.2286 110.441 48.5161C110.441 48.8716 110.376 49.197 110.248 49.492C110.127 49.7871 109.953 50.0632 109.726 50.3204C109.506 50.5701 109.245 50.8122 108.943 51.0467C108.648 51.2813 108.326 51.5196 107.978 51.7617C107.736 51.9205 107.498 52.0908 107.263 52.2723C107.029 52.4464 106.828 52.6241 106.662 52.8057C106.495 52.9873 106.389 53.1613 106.344 53.3277H110.486V54.2583H105.141ZM114.95 54.2583V52.3518H111.33V51.512C111.648 50.9673 111.935 50.4188 112.193 49.8665C112.457 49.3142 112.692 48.7468 112.896 48.1643C113.108 47.5817 113.282 46.9727 113.418 46.3372H114.485C114.387 46.7533 114.266 47.1807 114.122 47.6195C113.978 48.0508 113.819 48.4707 113.645 48.8792C113.471 49.2877 113.297 49.6698 113.123 50.0254C112.957 50.381 112.798 50.6874 112.647 50.9446C112.503 51.2018 112.386 51.391 112.295 51.512H114.95V49.0381C114.996 48.917 115.041 48.7922 115.086 48.6636C115.139 48.5274 115.189 48.3912 115.234 48.255C115.279 48.1113 115.321 47.9789 115.359 47.8579C115.397 47.7292 115.427 47.6082 115.45 47.4947H115.949V51.512H116.982V52.3518H115.949V54.2583H114.95ZM118.317 54.2583V53.0667H119.429V54.2583H118.317Z" fill="white"/>
</g>
</svg>
