<svg width="42" height="53" viewBox="0 0 42 53" fill="none" xmlns="http://www.w3.org/2000/svg">
<g style="mix-blend-mode:difference">
<path fill-rule="evenodd" clip-rule="evenodd" d="M9.01132 27.7257C9.01132 28.5914 8.11539 29.1578 7.37843 28.7036C2.95116 25.9748 9.68078e-06 21.0818 9.68078e-06 15.4994C9.68078e-06 6.93934 6.93935 0 15.4995 0C23.1615 0 29.525 5.55964 30.7759 12.8649C30.8933 13.5503 30.3431 14.1477 29.6477 14.1477L10.1975 14.1477C9.5424 14.1477 9.01132 14.6788 9.01132 15.3339V27.7257Z" fill="white"/>
<path fill-rule="evenodd" clip-rule="evenodd" d="M32.9099 24.3836C32.9099 23.5179 33.8059 22.9514 34.5428 23.4057C38.9701 26.1344 41.9213 31.0275 41.9213 36.6098C41.9213 45.1699 34.9819 52.1093 26.4218 52.1093C18.7598 52.1093 12.3963 46.5496 11.1454 39.2444C11.028 38.5589 11.5782 37.9615 12.2736 37.9615L31.7237 37.9615C32.3789 37.9615 32.9099 37.4305 32.9099 36.7753L32.9099 24.3836Z" fill="white"/>
<rect x="11.0845" y="16.1833" width="19.7303" height="19.7303" rx="1.77931" fill="white"/>
</g>
</svg>
