<svg width="42" height="53" viewBox="0 0 42 53" fill="none" xmlns="http://www.w3.org/2000/svg">
<mask id="path-1-inside-1_1777_10" fill="white">
<path fill-rule="evenodd" clip-rule="evenodd" d="M9.01132 27.7257C9.01132 28.5914 8.11539 29.1578 7.37843 28.7036C2.95116 25.9748 7.77343e-06 21.0818 7.77343e-06 15.4994C7.77343e-06 6.93934 6.93935 0 15.4995 0C23.1615 0 29.525 5.55964 30.7759 12.8649C30.8933 13.5503 30.3431 14.1477 29.6477 14.1477L10.1975 14.1477C9.5424 14.1477 9.01132 14.6788 9.01132 15.3339V27.7257Z"/>
</mask>
<path fill-rule="evenodd" clip-rule="evenodd" d="M9.01132 27.7257C9.01132 28.5914 8.11539 29.1578 7.37843 28.7036C2.95116 25.9748 7.77343e-06 21.0818 7.77343e-06 15.4994C7.77343e-06 6.93934 6.93935 0 15.4995 0C23.1615 0 29.525 5.55964 30.7759 12.8649C30.8933 13.5503 30.3431 14.1477 29.6477 14.1477L10.1975 14.1477C9.5424 14.1477 9.01132 14.6788 9.01132 15.3339V27.7257Z" fill="white"/>
<path d="M30.7759 12.8649L31.7616 12.6961L30.7759 12.8649ZM7.90312 27.8523C3.75889 25.298 1.00001 20.7205 1.00001 15.4994L-0.999992 15.4994C-0.999992 21.4431 2.14344 26.6517 6.85374 29.5549L7.90312 27.8523ZM1.00001 15.4994C1.00001 7.49162 7.49163 1 15.4995 1V-1C6.38706 -1 -0.999992 6.38705 -0.999992 15.4994L1.00001 15.4994ZM15.4995 1C22.6661 1 28.6202 6.20047 29.7902 13.0336L31.7616 12.6961C30.4298 4.91881 23.6568 -1 15.4995 -1V1ZM10.1975 15.1477L29.6477 15.1477L29.6477 13.1477L10.1975 13.1477V15.1477ZM10.0113 27.7257V15.3339H8.01132V27.7257H10.0113ZM10.1975 13.1477C8.99011 13.1477 8.01132 14.1265 8.01132 15.3339H10.0113C10.0113 15.2311 10.0947 15.1477 10.1975 15.1477V13.1477ZM29.7902 13.0336C29.7931 13.0505 29.7913 13.0598 29.7895 13.0659C29.7872 13.0734 29.782 13.0846 29.7706 13.0974C29.7469 13.1239 29.7051 13.1477 29.6477 13.1477L29.6477 15.1477C30.9039 15.1477 31.9932 14.0491 31.7616 12.6961L29.7902 13.0336ZM6.85374 29.5549C8.34677 30.4751 10.0113 29.2662 10.0113 27.7257H8.01132C8.01132 27.8005 7.97703 27.8397 7.95005 27.8562C7.94345 27.8602 7.93815 27.8623 7.93475 27.8633C7.9315 27.8642 7.92993 27.8643 7.9298 27.8643C7.92967 27.8643 7.92953 27.8643 7.92927 27.8642C7.92903 27.8642 7.92825 27.8641 7.92684 27.8637C7.92456 27.8631 7.91662 27.8606 7.90312 27.8523L6.85374 29.5549Z" fill="black" mask="url(#path-1-inside-1_1777_10)"/>
<mask id="path-3-inside-2_1777_10" fill="white">
<path fill-rule="evenodd" clip-rule="evenodd" d="M32.9099 24.3834C32.9099 23.5177 33.8059 22.9513 34.5428 23.4055C38.9701 26.1343 41.9213 31.0273 41.9213 36.6097C41.9213 45.1698 34.9819 52.1091 26.4218 52.1091C18.7598 52.1091 12.3963 46.5495 11.1454 39.2443C11.028 38.5588 11.5782 37.9614 12.2736 37.9614L31.7237 37.9614C32.3789 37.9614 32.9099 37.4303 32.9099 36.7752L32.9099 24.3834Z"/>
</mask>
<path fill-rule="evenodd" clip-rule="evenodd" d="M32.9099 24.3834C32.9099 23.5177 33.8059 22.9513 34.5428 23.4055C38.9701 26.1343 41.9213 31.0273 41.9213 36.6097C41.9213 45.1698 34.9819 52.1091 26.4218 52.1091C18.7598 52.1091 12.3963 46.5495 11.1454 39.2443C11.028 38.5588 11.5782 37.9614 12.2736 37.9614L31.7237 37.9614C32.3789 37.9614 32.9099 37.4303 32.9099 36.7752L32.9099 24.3834Z" fill="white"/>
<path d="M11.1454 39.2443L10.1597 39.413L11.1454 39.2443ZM34.5428 23.4055L35.0675 22.5543L34.5428 23.4055ZM34.0181 24.2568C38.1624 26.8111 40.9213 31.3886 40.9213 36.6097H42.9213C42.9213 30.666 39.7778 25.4574 35.0675 22.5543L34.0181 24.2568ZM40.9213 36.6097C40.9213 44.6175 34.4296 51.1091 26.4218 51.1091V53.1091C35.5342 53.1091 42.9213 45.7221 42.9213 36.6097H40.9213ZM26.4218 51.1091C19.2551 51.1091 13.3011 45.9087 12.131 39.0755L10.1597 39.413C11.4915 47.1903 18.2644 53.1091 26.4218 53.1091V51.1091ZM31.7237 36.9614L12.2736 36.9614L12.2736 38.9614L31.7237 38.9614V36.9614ZM31.9099 24.3834L31.9099 36.7752H33.9099L33.9099 24.3834H31.9099ZM31.7237 38.9614C32.9312 38.9614 33.9099 37.9826 33.9099 36.7752H31.9099C31.9099 36.878 31.8266 36.9614 31.7237 36.9614V38.9614ZM12.131 39.0755C12.1281 39.0586 12.13 39.0493 12.1318 39.0433C12.1341 39.0358 12.1393 39.0245 12.1507 39.0117C12.1743 38.9852 12.2161 38.9614 12.2736 38.9614L12.2736 36.9614C11.0173 36.9614 9.92804 38.0601 10.1597 39.413L12.131 39.0755ZM35.0675 22.5543C33.5745 21.634 31.9099 22.8429 31.9099 24.3834H33.9099C33.9099 24.3087 33.9442 24.2694 33.9712 24.253C33.9778 24.2489 33.9831 24.2469 33.9865 24.2459C33.9898 24.2449 33.9913 24.2449 33.9915 24.2449C33.9916 24.2449 33.9917 24.2449 33.992 24.2449C33.9922 24.2449 33.993 24.245 33.9944 24.2454C33.9967 24.2461 34.0046 24.2485 34.0181 24.2568L35.0675 22.5543Z" fill="black" mask="url(#path-3-inside-2_1777_10)"/>
<rect x="11.5845" y="16.6833" width="18.7303" height="18.7303" rx="1.27931" fill="white" stroke="black"/>
</svg>
